<svg xmlns="http://www.w3.org/2000/svg" viewBox="0 0 30 34" enable-background="new 0 0 30 34"><path d="M30 22.499c0 1.1-.749 2.5-1.665 3.111l-11.67 7.78c-.916.61-2.414.61-3.33 0l-11.67-7.78c-.916-.611-1.665-2.01-1.665-3.111v-10.998c0-1.1.749-2.5 1.665-3.111l11.67-7.78c.916-.61 2.414-.61 3.33 0l11.67 7.78c.916.611 1.665 2.01 1.665 3.111v10.998z" fill="#F95858"/><path d="M15.13 21.368c-.705 1.136-2.185 1.482-3.322.776-1.136-.706-1.482-2.186-.776-3.322l1.357-2.165c.451-.727 1.418-.953 2.144-.501.466.289 1.085.144 1.375-.322.289-.465.144-1.085-.321-1.374-1.659-1.03-3.864-.514-4.893 1.144l-1.358 2.165c-1.284 2.068-.649 4.786 1.419 6.071 1.025.636 2.226.801 3.328.543 1.103-.257 2.091-.934 2.743-1.962.289-.466.145-1.085-.321-1.375-.466-.289-1.085-.144-1.375.322m4.119-11.204c-2.068-1.285-4.786-.649-6.071 1.419-.289.466-.145 1.085.321 1.374.466.289 1.085.145 1.375-.321.705-1.137 2.185-1.482 3.322-.777 1.136.706 1.482 2.186.776 3.323l-1.357 2.165c-.448.741-1.414.967-2.145.501-.465-.289-1.084-.145-1.374.321-.289.466-.144 1.085.321 1.374.839.521 1.792.649 2.683.44.891-.208 1.69-.745 2.21-1.583l1.343-2.162c1.299-2.071.664-4.789-1.404-6.074" fill="#fff"/><path d="M15 1.152c.429 0 .834.106 1.11.29l11.67 7.78c.639.426 1.22 1.512 1.22 2.279v10.998c0 .767-.581 1.853-1.219 2.279l-11.67 7.78c-.276.184-.681.29-1.11.29s-.834-.106-1.11-.29l-11.67-7.78c-.64-.426-1.221-1.512-1.221-2.279v-10.998c0-.767.581-1.853 1.219-2.279l11.67-7.78c.277-.184.682-.29 1.111-.29m0-1c-.603 0-1.207.153-1.665.458l-11.67 7.78c-.916.611-1.665 2.01-1.665 3.111v10.998c0 1.1.749 2.5 1.665 3.111l11.67 7.78c.458.305 1.061.458 1.665.458s1.207-.153 1.665-.458l11.67-7.78c.916-.611 1.665-2.01 1.665-3.111v-10.998c0-1.1-.749-2.5-1.665-3.111l-11.67-7.78c-.458-.305-1.062-.458-1.665-.458z" fill="#F95858"/><g><path d="M26.389 25.765c.888-.261 1.299-1.039 1.299-1.772 0-.897-.617-1.863-1.971-1.863h-3.311c-1.267 0-2.048.765-2.09 2.046l-.108 2.655c-.032.709.239 1.151.473 1.395l.235.202c-.625.312-1.045.946-1.045 1.694 0 .513.222 1.042.608 1.453.767.8 1.979 1.273 3.247 1.273 2.516 0 4.274-1.658 4.274-4.034 0-1.338-.599-2.411-1.611-3.049" fill="#F95858"/><path d="M21.315 24.209c.024-.731.36-1.079 1.091-1.079h3.31c.828 0 .972.575.972.863 0 .288-.144.863-.972.863h-2.566l-.072 1.344c.252-.06.6-.084.851-.084 1.703 0 3.071.911 3.071 2.698 0 2.064-1.607 3.035-3.274 3.035-1.032 0-1.967-.384-2.519-.959-.192-.204-.336-.493-.336-.768 0-.516.408-.899.936-.899.239 0 .444.059.815.455.264.276.636.468 1.08.468.683 0 1.271-.419 1.271-1.236 0-1.007-.911-1.295-1.739-1.295-.36 0-.624.036-.828.073-.179.036-.312.059-.455.059-.217 0-.78-.084-.744-.875l.108-2.663z" fill="#fff"/></g></svg>