<svg xmlns="http://www.w3.org/2000/svg" viewBox="0 0 30 34" enable-background="new 0 0 30 34"><path d="M30 22.499c0 1.1-.749 2.5-1.665 3.111l-11.67 7.78c-.916.61-2.414.61-3.33 0l-11.67-7.78c-.916-.611-1.665-2.01-1.665-3.111v-10.998c0-1.1.749-2.5 1.665-3.111l11.67-7.78c.916-.61 2.414-.61 3.33 0l11.67 7.78c.916.611 1.665 2.01 1.665 3.111v10.998z" fill="#C94E4B"/><path d="M20.089 18.283c-2.421-2.962-7.286-3.12-9.935-.392-1.389 1.431-2.031 3.235-.827 4.988.946 1.378 2.08 1.854 3.691 1.448.503-.126 1.02-.271 1.597-.271h.282c.554.058 1.046.267 1.508.457.302.124.611.25.935.305.709.129 1.47-.258 2.055-.627 2.224-1.405 2.304-3.939.694-5.908zm-8.758-5.059c.441.214.933.341 1.423.36 2.159 0 2.739-6.836.194-6.407-1.243.209-2.14 1.684-2.662 2.704-.703 1.377-.481 2.604 1.045 3.343zm-.617 2.195c-.114-1.248-2.205-4.053-3.684-3.016-1.508 1.143-1.328 4.326.334 5.306 1.175.692 3.231-1.136 3.35-2.29-.032-.342-.085.816 0 0zm5.974-1.655c1.205.179 3.19-.535 3.245-1.989 0-1.374-1.617-4.934-3.424-4.269-1.734.556-1.699 5.98.179 6.258zm7.3.772c-.067-.781-.414-1.508-.989-2.042-.797-.674-1.899.282-2.438.841-1.026 1.062-1.843 2.284-.705 3.542.554.613 1.655 1.493 2.556 1.131 1.186-.475 1.674-2.34 1.576-3.472z" fill="#fff"/><path d="M15 1.152c.429 0 .834.106 1.11.29l11.67 7.78c.639.426 1.22 1.512 1.22 2.279v10.998c0 .767-.581 1.853-1.219 2.279l-11.67 7.78c-.276.184-.681.29-1.11.29s-.834-.106-1.11-.29l-11.67-7.78c-.64-.426-1.221-1.512-1.221-2.279v-10.998c0-.767.581-1.853 1.219-2.279l11.67-7.78c.277-.184.682-.29 1.111-.29m0-1c-.603 0-1.207.153-1.665.458l-11.67 7.78c-.916.611-1.665 2.01-1.665 3.111v10.998c0 1.1.749 2.5 1.665 3.111l11.67 7.78c.458.305 1.061.458 1.665.458s1.207-.153 1.665-.458l11.67-7.78c.916-.611 1.665-2.01 1.665-3.111v-10.998c0-1.1-.749-2.5-1.665-3.111l-11.67-7.78c-.458-.305-1.062-.458-1.665-.458z" fill="#C94E4B"/><g><path d="M26.753 21.965c-.495 0-1.002.184-1.507.548l-1.667 1.218c-.255-1.211-1.218-1.766-2.179-1.766-.5 0-.992.179-1.505.547l-1.747 1.276c-.601.448-.902.988-.902 1.612 0 1.052.813 1.876 1.852 1.876.179 0 .359-.027.535-.078v3.371c0 1.461 1.041 2.127 2.008 2.127s2.008-.666 2.008-2.127v-3.479c.242.116.511.186.801.186.179 0 .36-.027.535-.078v3.371c0 1.461 1.041 2.127 2.007 2.127.967 0 2.008-.666 2.008-2.127v-6.189c0-1.668-1.129-2.415-2.247-2.415" fill="#C94E4B"/><path d="M20.478 23.324c.384-.275.684-.359.923-.359.431 0 1.248.179 1.248 1.415v6.188c0 .972-.684 1.128-1.008 1.128s-1.008-.156-1.008-1.128v-5.228l-.911.707c-.216.168-.443.228-.624.228-.478 0-.851-.372-.851-.876 0-.263.121-.527.492-.804l1.739-1.271zM25.83 23.324c.383-.275.684-.359.923-.359.431 0 1.247.179 1.247 1.415v6.188c0 .972-.684 1.128-1.008 1.128-.323 0-1.007-.156-1.007-1.128v-5.228l-.911.707c-.217.168-.443.228-.624.228-.479 0-.851-.372-.851-.876 0-.263.12-.527.491-.804l1.74-1.271z" fill="#fff"/></g></svg>