<svg xmlns="http://www.w3.org/2000/svg" viewBox="0 0 30 34" enable-background="new 0 0 30 34"><path d="M30 22.499c0 1.1-.749 2.5-1.665 3.111l-11.67 7.78c-.916.61-2.414.61-3.33 0l-11.67-7.78c-.916-.611-1.665-2.01-1.665-3.111v-10.998c0-1.1.749-2.5 1.665-3.111l11.67-7.78c.916-.61 2.414-.61 3.33 0l11.67 7.78c.916.611 1.665 2.01 1.665 3.111v10.998z" fill="#F38844"/><g><path d="M23.878 22.589l-4.184-8.345c-.486-.969-.743-2.053-.743-3.137v-5.107c0-.552-.448-1-1-1s-1 .448-1 1v5.107c0 1.394.33 2.789.955 4.034l1.435 2.859h-8.68l1.434-2.859c.625-1.245.955-2.64.955-4.034v-5.107c0-.552-.448-1-1-1s-1 .448-1 1v5.107c0 1.084-.257 2.168-.743 3.137l-1.882 3.756-2.265 4.522c-.564.939-.58 2.069-.04 3.022.539.954 1.515 1.523 2.611 1.523h12.54c1.096 0 2.072-.569 2.611-1.523.538-.953.523-2.083-.004-2.955z" fill="#fff"/><circle cx="15" cy="10" r="1" fill="#fff"/><circle cx="16" cy="4" r="1" fill="#fff"/><circle cx="16" cy="15" r="1" fill="#fff"/><path d="M14 23.833h-5c-.276 0-.5-.224-.5-.5s.224-.5.5-.5h5c.276 0 .5.224.5.5s-.224.5-.5.5zM14 20.833h-4c-.276 0-.5-.224-.5-.5s.224-.5.5-.5h4c.276 0 .5.224.5.5s-.224.5-.5.5z" fill="#F38844"/></g></svg>