<svg xmlns="http://www.w3.org/2000/svg" viewBox="0 0 30 34" enable-background="new 0 0 30 34"><path d="M30 22.499c0 1.1-.749 2.5-1.665 3.111l-11.67 7.78c-.916.61-2.414.61-3.33 0l-11.67-7.78c-.916-.611-1.665-2.01-1.665-3.111v-10.998c0-1.1.749-2.5 1.665-3.111l11.67-7.78c.916-.61 2.414-.61 3.33 0l11.67 7.78c.916.611 1.665 2.01 1.665 3.111v10.998z" fill="#C94E4B"/><g><path d="M28 15v-4h-3v-1h-1v-3h-4v1.5c0 .828-.672 1.5-1.5 1.5s-1.5-.672-1.5-1.5v-1.5h-4v1.5c0 .828-.672 1.5-1.5 1.5s-1.5-.672-1.5-1.5v-1.5h-4v3h-1v1h-3v4h1.5c.828 0 1.5.672 1.5 1.5s-.672 1.5-1.5 1.5h-1.5v4h3v1h1v3h4v-1.5c0-.828.672-1.5 1.5-1.5s1.5.672 1.5 1.5v1.5h4v-1.5c0-.828.672-1.5 1.5-1.5s1.5.672 1.5 1.5v1.5h4v-3h1v-1h3v-4h-1.5c-.828 0-1.5-.672-1.5-1.5s.672-1.5 1.5-1.5h1.5zm-4 7h-18v-11h18v11zM8 13h4v1h-4zM8 13h1v3h-1zM8 15h3v1h-3zM11 15h1v3h-1zM8 17h4v1h-4zM13 14h4v1h-4zM13 15h1v2h-1zM13 17h4v1h-4z" fill="#fff"/></g><path d="M15 1.152c.429 0 .834.106 1.11.29l11.67 7.78c.639.426 1.22 1.512 1.22 2.279v10.998c0 .767-.581 1.853-1.219 2.279l-11.67 7.78c-.276.184-.681.29-1.11.29s-.834-.106-1.11-.29l-11.67-7.78c-.64-.426-1.221-1.512-1.221-2.279v-10.998c0-.767.581-1.853 1.219-2.279l11.67-7.78c.277-.184.682-.29 1.111-.29m0-1c-.603 0-1.207.153-1.665.458l-11.67 7.78c-.916.611-1.665 2.01-1.665 3.111v10.998c0 1.1.749 2.5 1.665 3.111l11.67 7.78c.458.305 1.061.458 1.665.458s1.207-.153 1.665-.458l11.67-7.78c.916-.611 1.665-2.01 1.665-3.111v-10.998c0-1.1-.749-2.5-1.665-3.111l-11.67-7.78c-.458-.305-1.062-.458-1.665-.458z" fill="#C94E4B"/><g><path d="M27.796 25.148c0-2.001-1.639-3.398-3.986-3.398-1.269 0-2.463.474-3.195 1.27-.286.312-.611.757-.611 1.444 0 .976.731 1.752 1.696 1.843-.109.242-.161.504-.161.76 0 .323.083.656.255.946l-.119-.004c-1.054 0-1.912.852-1.912 1.9 0 .57.232 1.091.69 1.547.828.813 1.982 1.24 3.345 1.24 2.088 0 4.202-1.27 4.202-3.698 0-.78-.306-1.5-.822-2.043.392-.496.618-1.124.618-1.807" fill="#C94E4B"/><path d="M22.539 27.067c0-.252.12-.78.887-.78 1.008 0 1.32-.467 1.32-.959 0-.612-.516-.936-1.068-.936-.42 0-.707.168-1.007.528-.18.216-.408.396-.78.396-.492 0-.887-.36-.887-.852 0-.276.096-.492.348-.767.551-.6 1.487-.947 2.458-.947 1.5 0 2.986.767 2.986 2.398 0 .936-.599 1.631-1.427 1.847v.036c.972.227 1.631 1.019 1.631 1.967 0 1.859-1.643 2.698-3.202 2.698-1.079 0-1.991-.312-2.638-.947-.276-.276-.396-.54-.396-.84 0-.516.42-.9.911-.9.312 0 .528.145.888.504.348.348.695.492 1.139.492.576 0 1.235-.288 1.235-1.08 0-.599-.491-1.067-1.511-1.067-.767 0-.887-.527-.887-.791" fill="#fff"/></g></svg>