<svg xmlns="http://www.w3.org/2000/svg" viewBox="0 0 30 34" enable-background="new 0 0 30 34"><path d="M30 22.499c0 1.1-.749 2.5-1.665 3.111l-11.67 7.78c-.916.61-2.414.61-3.33 0l-11.67-7.78c-.916-.611-1.665-2.01-1.665-3.111v-10.998c0-1.1.749-2.5 1.665-3.111l11.67-7.78c.916-.61 2.414-.61 3.33 0l11.67 7.78c.916.611 1.665 2.01 1.665 3.111v10.998z" fill="#56A4CA"/><g><path d="M23 17.5h-11c-.276 0-.5-.224-.5-.5s.224-.5.5-.5h11c.276 0 .5.224.5.5s-.224.5-.5.5zM23 21.5h-16c-.276 0-.5-.224-.5-.5s.224-.5.5-.5h16c.276 0 .5.224.5.5s-.224.5-.5.5zM18 25.5h-11c-.276 0-.5-.224-.5-.5s.224-.5.5-.5h11c.276 0 .5.224.5.5s-.224.5-.5.5zM7 17.5c-.095 0-.192-.027-.277-.084-.23-.153-.292-.464-.139-.693l1.11-1.664c.153-.23.463-.292.693-.139s.292.464.139.693l-1.11 1.664c-.096.145-.255.223-.416.223z" fill="#fff"/><g fill="#fff"><path d="M8.804 7.986l4.51-6.761.299-.199c.356-.238.862-.374 1.387-.374s1.031.136 1.388.374l3.788 2.526-5.548 8.318-5.824-3.884zM15 1.152c.429 0 .834.106 1.11.29l3.372 2.248-4.993 7.487-4.991-3.329 4.176-6.262.216-.144c.276-.184.681-.29 1.11-.29m0-1c-.604 0-1.207.153-1.665.458l-.382.255-4.842 7.26 6.656 4.439 6.103-9.151-4.205-2.803c-.458-.305-1.061-.458-1.665-.458z"/></g><path d="M7.555 16.168l7.212-3.604 6.103-9.151-.832-.555-5.955 8.93-5.409 2.703.416-6.032 5.524-8.282c-.469.051-.919.193-1.279.433l-.382.255-4.842 7.26-.556 8.043z" fill="#fff"/></g><path d="M15 1.152c.429 0 .834.106 1.11.29l11.67 7.78c.639.426 1.22 1.512 1.22 2.279v10.998c0 .767-.581 1.853-1.219 2.279l-11.67 7.78c-.276.184-.681.29-1.11.29s-.834-.106-1.11-.29l-11.67-7.78c-.64-.426-1.221-1.512-1.221-2.279v-10.998c0-.767.581-1.853 1.219-2.279l11.67-7.78c.277-.184.682-.29 1.111-.29m0-1c-.604 0-1.207.153-1.665.458l-11.67 7.78c-.916.611-1.665 2.01-1.665 3.111v10.998c0 1.1.749 2.5 1.665 3.111l11.67 7.78c.458.305 1.061.458 1.665.458s1.207-.153 1.665-.458l11.67-7.78c.916-.611 1.665-2.01 1.665-3.111v-10.998c0-1.1-.749-2.5-1.665-3.111l-11.67-7.78c-.458-.305-1.061-.458-1.665-.458z" fill="#56A4CA"/></svg>