<svg xmlns="http://www.w3.org/2000/svg" viewBox="0 0 30 34" enable-background="new 0 0 30 34"><path d="M30 22.499c0 1.1-.749 2.5-1.665 3.111l-11.67 7.78c-.916.61-2.414.61-3.33 0l-11.67-7.78c-.916-.611-1.665-2.01-1.665-3.111v-10.998c0-1.1.749-2.5 1.665-3.111l11.67-7.78c.916-.61 2.414-.61 3.33 0l11.67 7.78c.916.611 1.665 2.01 1.665 3.111v10.998z" fill="#8360A8"/><g><circle cx="15" cy="16" r="4" fill="#fff"/><path d="M10.05 21.95c-1.266-1.267-2.05-3.017-2.05-4.95s.784-3.683 2.05-4.95 3.017-2.05 4.95-2.05 3.683.784 4.95 2.05 2.05 3.017 2.05 4.95-.784 3.683-2.05 4.95M8.85 26.121c-.585-.395-1.13-.846-1.628-1.343s-.948-1.043-1.343-1.628-.736-1.21-1.014-1.869c-.278-.658-.494-1.349-.641-2.065-.147-.715-.224-1.457-.224-2.216s.077-1.501.223-2.217c.147-.716.363-1.407.641-2.065.278-.658.619-1.283 1.014-1.869.395-.585.846-1.13 1.343-1.628s1.044-.947 1.629-1.342 1.21-.736 1.869-1.014c.658-.278 1.349-.494 2.065-.641.715-.147 1.457-.224 2.216-.224s1.501.077 2.217.223c.716.147 1.407.363 2.065.641s1.283.619 1.869 1.014c.585.395 1.13.846 1.628 1.343s.948 1.043 1.343 1.628.736 1.21 1.014 1.869c.278.658.494 1.349.641 2.065.146.716.223 1.458.223 2.217s-.077 1.501-.223 2.217c-.147.716-.363 1.407-.641 2.065-.278.658-.619 1.283-1.014 1.869-.395.585-.846 1.13-1.343 1.628s-1.043.948-1.628 1.343" stroke="#fff" stroke-linecap="round" stroke-miterlimit="10" fill="none"/><path d="M18 25c0-1.657-1.343-3-3-3s-3 1.343-3 3v9h6v-9z" fill="#fff"/></g></svg>