<svg xmlns="http://www.w3.org/2000/svg" viewBox="0 0 30 34" enable-background="new 0 0 30 34"><path d="M30 22.499c0 1.1-.749 2.5-1.665 3.111l-11.67 7.78c-.916.61-2.414.61-3.33 0l-11.67-7.78c-.916-.611-1.665-2.01-1.665-3.111v-10.998c0-1.1.749-2.5 1.665-3.111l11.67-7.78c.916-.61 2.414-.61 3.33 0l11.67 7.78c.916.611 1.665 2.01 1.665 3.111v10.998z" fill="#C94E4B"/><g><path d="M6.838 27.119l-.116-.016c-.159-.044-.278-.176-.306-.338l-.498-2.821-2.928-.069c-.172-.004-.325-.11-.389-.271s-.024-.342.099-.462l8.907-8.756c.083-.082.191-.123.3-.123.101 0 .202.036.283.107l3.093 2.721c.085.075.137.181.145.294s-.031.225-.106.311l-8.162 9.277c-.083.094-.201.146-.322.146z" fill="#fff"/><path d="M11.907 14.692l3.093 2.72-8.162 9.278-.559-3.168-3.279-.075 8.907-8.755m.001-.858c-.218 0-.435.082-.601.246l-8.907 8.756c-.246.241-.323.607-.196.927.127.32.433.534.777.541l2.577.059.437 2.475c.057.325.295.588.613.677l.231.032c.243 0 .478-.103.644-.291l8.162-9.278c.15-.171.226-.394.212-.621s-.119-.439-.289-.589l-3.093-2.721c-.164-.142-.366-.213-.567-.213z" fill="#C94E4B"/><path d="M23.162 27.119c-.122 0-.239-.052-.322-.146l-8.162-9.278c-.075-.085-.113-.197-.106-.311s.059-.219.145-.294l3.093-2.721c.081-.071.182-.107.283-.107.109 0 .217.042.3.123l8.907 8.756c.123.121.162.303.098.463s-.216.267-.389.271l-2.928.067-.498 2.821c-.028.163-.147.294-.306.338l-.115.018z" fill="#fff"/><path d="M18.093 14.692l8.907 8.755-3.279.075-.559 3.168-8.162-9.278 3.093-2.72m-.001-.858c-.202 0-.404.071-.566.214l-3.093 2.721c-.171.15-.275.362-.289.589s.062.45.212.621l8.162 9.278c.165.188.401.291.644.291l.231-.032c.317-.089.555-.352.613-.677l.437-2.475 2.577-.059c.344-.008.651-.221.777-.541.127-.32.05-.685-.196-.927l-8.907-8.756c-.167-.164-.384-.247-.602-.247z" fill="#C94E4B"/><path d="M25.294 20.967c-.21 0-.418-.039-.617-.116l-5.79-2.227c-.658-.253-1.1-.896-1.1-1.601v-3.312c0-.758.487-1.417 1.211-1.639l5.79-1.782c.166-.051.336-.077.506-.077.945 0 1.713.77 1.713 1.716v7.32c.001.948-.768 1.718-1.713 1.718z" fill="#fff"/><path d="M25.295 10.643c.685 0 1.284.555 1.284 1.287v7.321c0 .738-.604 1.288-1.285 1.288-.153 0-.309-.028-.463-.087l-5.79-2.227c-.497-.191-.825-.669-.825-1.201v-3.312c0-.565.368-1.064.908-1.23l5.79-1.781c.128-.04.256-.058.381-.058m0-.857c-.214 0-.426.032-.633.096l-5.79 1.781c-.905.279-1.513 1.102-1.513 2.049v3.312c0 .881.552 1.685 1.374 2.001l5.789 2.227c.249.096.508.144.771.144 1.181 0 2.142-.962 2.142-2.145v-7.321c.001-1.182-.959-2.144-2.14-2.144z" fill="#C94E4B"/><path d="M4.706 20.455c-.945 0-1.713-.77-1.713-1.716v-7.321c0-.946.769-1.716 1.714-1.716.21 0 .418.039.617.116l5.79 2.227c.658.253 1.1.897 1.1 1.601v3.312c0 .758-.487 1.417-1.211 1.64l-5.79 1.781c-.167.05-.337.076-.507.076z" fill="#fff"/><path d="M4.706 10.131c.153 0 .309.028.463.087l5.79 2.227c.497.191.825.668.825 1.201v3.312c0 .565-.368 1.064-.908 1.23l-5.79 1.781c-.128.039-.256.058-.381.058-.685 0-1.284-.555-1.284-1.287v-7.321c0-.738.604-1.288 1.285-1.288m0-.857c-1.181 0-2.143.962-2.143 2.145v7.321c0 1.182.961 2.145 2.141 2.145.214 0 .426-.032.633-.096l5.79-1.781c.905-.278 1.513-1.102 1.513-2.049v-3.312c0-.881-.552-1.685-1.374-2.001l-5.79-2.227c-.248-.097-.507-.145-.77-.145z" fill="#C94E4B"/><path d="M13.499 18.98c-.828 0-1.501-.673-1.501-1.501v-4.289c0-.828.673-1.501 1.501-1.501h3.002c.828 0 1.501.673 1.501 1.501v4.289c0 .828-.673 1.501-1.501 1.501h-3.002z" fill="#fff"/><path d="M16.501 12.118c.592 0 1.072.48 1.072 1.072v4.289c0 .592-.48 1.072-1.072 1.072h-3.002c-.592 0-1.072-.48-1.072-1.072v-4.289c0-.592.48-1.072 1.072-1.072h3.002m0-.857h-3.002c-1.064 0-1.929.865-1.929 1.929v4.289c0 1.064.865 1.929 1.929 1.929h3.002c1.064 0 1.929-.865 1.929-1.929v-4.289c0-1.063-.865-1.929-1.929-1.929z" fill="#C94E4B"/></g><path d="M15 1.152c.429 0 .834.106 1.11.29l11.67 7.78c.639.426 1.22 1.512 1.22 2.279v10.998c0 .767-.581 1.853-1.219 2.279l-11.67 7.78c-.276.184-.681.29-1.11.29s-.834-.106-1.11-.29l-11.67-7.78c-.64-.426-1.221-1.512-1.221-2.279v-10.998c0-.767.581-1.853 1.219-2.279l11.67-7.78c.277-.184.682-.29 1.111-.29m0-1c-.603 0-1.207.153-1.665.458l-11.67 7.78c-.916.611-1.665 2.01-1.665 3.111v10.998c0 1.1.749 2.5 1.665 3.111l11.67 7.78c.458.305 1.061.458 1.665.458s1.207-.153 1.665-.458l11.67-7.78c.916-.611 1.665-2.01 1.665-3.111v-10.998c0-1.1-.749-2.5-1.665-3.111l-11.67-7.78c-.458-.305-1.062-.458-1.665-.458z" fill="#C94E4B"/></svg>