<svg xmlns="http://www.w3.org/2000/svg" viewBox="0 0 30 34" enable-background="new 0 0 30 34"><path d="M30 22.499c0 1.1-.749 2.5-1.665 3.111l-11.67 7.78c-.916.61-2.414.61-3.33 0l-11.67-7.78c-.916-.611-1.665-2.01-1.665-3.111v-10.998c0-1.1.749-2.5 1.665-3.111l11.67-7.78c.916-.61 2.414-.61 3.33 0l11.67 7.78c.916.611 1.665 2.01 1.665 3.111v10.998z" fill="#72BF40"/><g><path fill="#56A4CA" d="M13 11l-2 4h-2l-1-4-4-2 1 4v12l4 2h16v-12l2-4z"/><path fill="#fff" d="M21 11h-15l-2-4h15zM9 16c-.152 0-.306-.035-.447-.105l-4-2c-.261-.131-.452-.369-.523-.652l-1-4c-.095-.379.04-.779.345-1.023.18-.145.402-.22.625-.22.152 0 .306.035.447.105l4 2c.261.131.452.369.523.652l1 4c.095.379-.04.778-.345 1.023-.18.145-.402.22-.625.22z"/><path d="M4 9l4 2 1 4-4-2-1-4m0-2c-.447 0-.89.149-1.252.44-.609.489-.878 1.287-.688 2.045l1 4c.142.566.524 1.043 1.046 1.304l4 2c.283.141.589.211.894.211.447 0 .89-.149 1.252-.44.609-.489.878-1.287.689-2.045l-1-4c-.142-.567-.524-1.043-1.047-1.304l-4-2c-.283-.141-.589-.211-.894-.211z" fill="#72BF40"/><path d="M11 16c-.347 0-.668-.18-.851-.474-.182-.295-.199-.663-.044-.973l2-4c.17-.339.516-.553.895-.553h14c.347 0 .668.18.851.474.182.295.199.663.044.973l-2 4c-.17.339-.516.553-.895.553h-14z" fill="#fff"/><path d="M27 11h.005m-.005 0l-2 4h-14l2-4h14m.005-2h-14.005c-.758 0-1.45.428-1.789 1.106l-2 4c-.31.62-.277 1.356.088 1.946.364.589 1.008.948 1.701.948h14c.758 0 1.45-.428 1.789-1.106l1.96-3.92c.162-.288.254-.621.254-.975-.001-1.104-.893-1.999-1.998-1.999z" fill="#72BF40"/><path fill="#fff" d="M4.5 25.309v-11.118l5 2.5v11.118z"/><path d="M5 15l4 2v10l-4-2v-10m-1-1.618v12.236l.553.276 4 2 1.447.724v-12.236l-.553-.276-4-2-1.447-.724z" fill="#72BF40"/><path d="M11 27.5c-.276 0-.5-.224-.5-.5v-10c0-.276.224-.5.5-.5h14c.276 0 .5.224.5.5v10c0 .276-.224.5-.5.5h-14z" fill="#fff"/><path d="M25 17v10h-14v-10h14m0-1h-14c-.552 0-1 .448-1 1v10c0 .552.448 1 1 1h14c.552 0 1-.448 1-1v-10c0-.552-.448-1-1-1z" fill="#72BF40"/><path fill="#fff" d="M253.151 281.625h4.819v9.639h-4.819zM261.584 283.312h6.265v7.229h-6.265zM259.073 289.426c-.094 0-.184-.056-.223-.149l-2.397-5.788c-.051-.123.007-.264.13-.315l5.788-2.397.092-.019c.094 0 .184.056.223.149l2.398 5.788c.024.059.024.125 0 .185l-.13.13-5.789 2.397-.092.019z"/><path d="M262.464 280.999l2.398 5.788-5.788 2.398-2.397-5.788 5.787-2.398m0-.482l-.184.037-5.788 2.397c-.246.102-.363.384-.261.63l2.398 5.788c.049.118.143.212.261.261l.184.037.184-.037 5.788-2.398c.118-.049.212-.143.261-.261.049-.118.049-.251 0-.369l-2.398-5.788c-.077-.185-.256-.297-.445-.297z" fill="#56A4CA"/><path d="M256.042 288.734l-.114-.019-3.614-1.205c-.076-.025-.142-.075-.187-.142l-1.928-2.892c-.085-.129-.08-.297.014-.42.069-.091.177-.142.287-.142l.114.019 3.614 1.205c.076.025.142.075.187.142l1.928 2.892c.085.129.08.297-.014.42-.069.091-.177.142-.287.142z" fill="#fff"/><path d="M250.5 284.276l3.615 1.205 1.928 2.891-3.614-1.205-1.929-2.891m0-.723c-.221 0-.435.102-.575.284-.188.245-.198.583-.027.84l1.928 2.892c.089.134.22.234.373.285l3.614 1.205.229.037c.221 0 .435-.102.575-.284.188-.245.198-.583.027-.84l-1.928-2.891c-.089-.134-.22-.234-.373-.285l-3.615-1.205-.228-.038z" fill="#56A4CA"/><path d="M256.765 288.734c-.129 0-.249-.069-.313-.181s-.064-.25.001-.362l1.687-2.892c.064-.111.184-.179.312-.179h12.048c.129 0 .249.069.313.181s.064.25-.001.362l-1.687 2.892c-.064.111-.184.179-.312.179h-12.048z" fill="#fff"/><path d="M270.5 285.481h.005m-.005 0l-1.687 2.891h-12.048l1.687-2.891h12.048m.005-.723h-12.053c-.257 0-.495.137-.624.359l-1.687 2.891c-.13.224-.131.5-.002.724.129.224.368.363.627.363h12.048c.257 0 .495-.137.624-.359l1.663-2.851c.078-.115.124-.255.124-.404 0-.399-.321-.723-.72-.723z" fill="#56A4CA"/><path d="M256.042 299.095l-.114-.019-3.614-1.205c-.147-.049-.247-.187-.247-.343v-9.398c0-.112.052-.218.141-.287.064-.049.142-.075.22-.075l.093.012 3.614.964c.158.042.268.186.268.349v9.639c0 .116-.056.225-.15.293-.062.047-.136.07-.211.07z" fill="#fff"/><path d="M252.428 288.131l3.614.964v9.639l-3.614-1.205v-9.398m0-.722c-.158 0-.313.052-.44.15-.178.137-.282.349-.282.573v9.398c0 .311.199.587.494.686l3.614 1.205.229.037c.15 0 .298-.047.423-.136.188-.136.3-.354.3-.586v-9.639c0-.328-.22-.614-.537-.698l-3.614-.964-.187-.026z" fill="#56A4CA"/><path d="M256.765 299.095c-.2 0-.361-.162-.361-.361v-9.639c0-.2.162-.361.361-.361h12.048c.2 0 .361.162.361.361v9.639c0 .2-.162.361-.361.361h-12.048z" fill="#fff"/><path d="M268.813 289.095v9.639h-12.048v-9.639h12.048m0-.723h-12.048c-.399 0-.723.324-.723.723v9.639c0 .399.324.723.723.723h12.048c.399 0 .723-.324.723-.723v-9.639c0-.399-.323-.723-.723-.723z" fill="#56A4CA"/></g><path d="M15 1.152c.429 0 .834.106 1.11.29l11.67 7.78c.639.426 1.22 1.512 1.22 2.279v10.998c0 .767-.581 1.853-1.219 2.279l-11.67 7.78c-.276.184-.681.29-1.11.29s-.834-.106-1.11-.29l-11.67-7.78c-.64-.426-1.221-1.512-1.221-2.279v-10.998c0-.767.581-1.853 1.219-2.279l11.67-7.78c.277-.184.682-.29 1.111-.29m0-1c-.603 0-1.207.153-1.665.458l-11.67 7.78c-.916.611-1.665 2.01-1.665 3.111v10.998c0 1.1.749 2.5 1.665 3.111l11.67 7.78c.458.305 1.061.458 1.665.458s1.207-.153 1.665-.458l11.67-7.78c.916-.611 1.665-2.01 1.665-3.111v-10.998c0-1.1-.749-2.5-1.665-3.111l-11.67-7.78c-.458-.305-1.062-.458-1.665-.458z" fill="#72BF40"/></svg>