<svg xmlns="http://www.w3.org/2000/svg" viewBox="-735 237 28 28" enable-background="new -735 237 28 28"><g><path fill="#3F729B" d="M-733 237h24c1.105 0 2 .895 2 2v24c0 1.105-.895 2-2 2h-24c-1.105 0-2-.895-2-2v-24c0-1.105.895-2 2-2z"/><path fill="#fff" d="M-714 241.308h-14c-1.487 0-2.692 1.205-2.692 2.692v14c0 1.487 1.205 2.692 2.692 2.692h14c1.487 0 2.692-1.205 2.692-2.692v-14c.001-1.487-1.205-2.692-2.692-2.692zm-7 5.923c2.082 0 3.769 1.688 3.769 3.769s-1.688 3.769-3.769 3.769c-2.082 0-3.769-1.688-3.769-3.769s1.688-3.769 3.769-3.769zm7.539 10.769c0 .297-.241.538-.538.538h-14c-.297 0-.538-.241-.538-.538v-8.615h1.838c-.145.513-.223 1.055-.223 1.615 0 3.271 2.652 5.923 5.923 5.923s5.923-2.652 5.923-5.923c0-.56-.078-1.102-.223-1.615h1.838v8.615zm0-11.307c0 .297-.241.538-.538.538h-2.693c-.297 0-.538-.241-.538-.538v-2.692c0-.297.241-.538.538-.538h2.692c.297 0 .538.241.538.538v2.692h.001z"/></g></svg>