<svg xmlns="http://www.w3.org/2000/svg" viewBox="0 0 30 34" enable-background="new 0 0 30 34"><path d="M30 22.499c0 1.1-.749 2.5-1.665 3.111l-11.67 7.78c-.916.61-2.414.61-3.33 0l-11.67-7.78c-.916-.611-1.665-2.01-1.665-3.111v-10.998c0-1.1.749-2.5 1.665-3.111l11.67-7.78c.916-.61 2.414-.61 3.33 0l11.67 7.78c.916.611 1.665 2.01 1.665 3.111v10.998z" fill="#F2B827"/><g fill="#fff"><path d="M27 13c-1.267-.878-1.959.605-5 2-2.883 1.323-6 1-6 1h-2s-3.117.323-6-1c-3.041-1.395-3.733-2.878-5-2-1.625 1.125-.13 3.083 1 4.004 1.13.921 1.684 1.633 4 1.996 0 0 .342 5.132 2.84 7.294 2.02 1.749 3.6 1.67 4.16 1.706.553-.02 2.14.044 4.16-1.706 2.498-2.162 2.84-7.294 2.84-7.294 2.316-.363 2.87-1.075 4-1.996s2.625-2.879 1-4.004zm-11 12h-2v-1h2v1zm4.339-4.518c-.409 2.79-1.534 3.067-1.534 3.067s-.767.379-1.418-.626c-.65-1.004-1.287-.923-1.287-.923h-2.2s-.637-.081-1.288.923c-.651 1.005-1.418.626-1.418.626s-1.124-.277-1.534-3.067l.226-3.482s4.407.001 5.114 0c.707.001 5.114 0 5.114 0s.635.691.225 3.482zM12 19h2v1h-2zM16 19h2v1h-2zM15 14c4.969-.219 6-2.01 6-2.01v-1.99l-1-2-2-2h-2v1h-2v-1h-2l-2 2-1 2v1.99s1.031 1.791 6 2.01z"/></g></svg>