<svg xmlns="http://www.w3.org/2000/svg" viewBox="0 0 30 34" enable-background="new 0 0 30 34"><path d="M30 22.499c0 1.1-.749 2.5-1.665 3.111l-11.67 7.78c-.916.61-2.414.61-3.33 0l-11.67-7.78c-.916-.611-1.665-2.01-1.665-3.111v-10.998c0-1.1.749-2.5 1.665-3.111l11.67-7.78c.916-.61 2.414-.61 3.33 0l11.67 7.78c.916.611 1.665 2.01 1.665 3.111v10.998z" fill="#F38844"/><g><path d="M15.226 13.438c.659-.083 1.269-.481 1.567-1.044.321-.606.268-1.334-.151-2.051-.851-1.46-.432-2.744-.414-2.797.035-.102.008-.217-.068-.29-.077-.072-.187-.089-.28-.041-.119.061-2.88 1.521-2.88 4.019 0 1.129.752 2.062 1.72 2.202l.506.002z" fill="#fff"/><path stroke="#F38844" stroke-linecap="round" stroke-linejoin="round" stroke-miterlimit="10" fill="none" d="M15 12v6"/><path d="M16.235 17.43h-4.354c-1.138 0-1.336-.792-1.336-1.188s.198-1.188 1.336-1.188h5.773c1.501 0 1.699 1.022 1.699 1.353 0 .28-.033.577-.231.99l-4.19 8.544c-.379.775-.957.957-1.369.957-.742 0-1.402-.511-1.402-1.386 0-.214.049-.495.248-.874l3.826-7.208z" fill="#fff"/></g></svg>