<svg xmlns="http://www.w3.org/2000/svg" viewBox="0 0 30 34" enable-background="new 0 0 30 34"><path d="M30 22.499c0 1.1-.749 2.5-1.665 3.111l-11.67 7.78c-.916.61-2.414.61-3.33 0l-11.67-7.78c-.916-.611-1.665-2.01-1.665-3.111v-10.998c0-1.1.749-2.5 1.665-3.111l11.67-7.78c.916-.61 2.414-.61 3.33 0l11.67 7.78c.916.611 1.665 2.01 1.665 3.111v10.998z" fill="#F95858"/><path d="M25.826 13.197c.427-.782.41-1.707-.045-2.473-.455-.766-1.259-1.224-2.15-1.224h-1.964l.333-2.5h-14l.333 2.5h-1.964c-.891 0-1.695.458-2.15 1.224-.455.766-.472 1.691-.045 2.473l3.58 6.563c.123.226.035.421-.009.495-.043.074-.173.245-.43.245h-1.315c-.276 0-.5.224-.5.5s.224.5.5.5h1.315c.535 0 1.017-.274 1.29-.734.273-.46.283-1.015.027-1.484l-3.58-6.563c-.256-.469-.246-1.024.027-1.484s.755-.735 1.29-.735h2.098l1.533 11.5h3.5v4h-3.5v2h10v-2h-3.5v-4h3.5l1.533-11.5h2.098c.535 0 1.017.274 1.29.734s.283 1.015.027 1.484l-3.58 6.563c-.256.47-.246 1.024.027 1.484.273.459.755.734 1.29.734h1.315c.276 0 .5-.224.5-.5s-.224-.5-.5-.5h-1.315c-.257 0-.386-.171-.43-.245-.044-.074-.132-.269-.009-.495l3.58-6.562z" fill="#fff"/></svg>